<svg id="Capa_1" enable-background="new 0 0 512.017 512.017" height="512" viewBox="0 0 512.017 512.017" width="512" xmlns="http://www.w3.org/2000/svg"><g><path d="m512.008 512.017h-512v-49.919c0-8.284 6.716-15 15-15h482c8.284 0 15 6.716 15 15z"/><g><g><g><path d="m120.101 299.492c1.599 0 3.198.256 4.734.768l10.326 3.441v-63.867h-30.121v63.867l10.325-3.441c1.538-.511 3.137-.768 4.736-.768z"/><path d="m165.162 239.835v84.307c0 3.63-1.135 7.225-3.464 10.007-2.97 3.548-7.221 5.414-11.537 5.414-1.59 0-3.187-.253-4.733-.768l-25.326-8.44-25.325 8.44c-5.709 1.904-12.123.23-16.193-4.552-2.367-2.781-3.542-6.388-3.542-10.043v-84.365h-60.034c-8.284 0-15 6.728-15 15.026v162.184h241v-162.184c0-8.299-6.716-15.026-15-15.026z"/></g><g><path d="m390.384 303.703c1.599 0 3.198.256 4.734.769l10.326 3.441v-68.077h-30.121v68.077l10.325-3.441c1.537-.512 3.137-.769 4.736-.769z"/><path d="m435.444 239.835v88.518c0 3.63-1.135 7.225-3.464 10.007-2.97 3.548-7.222 5.414-11.537 5.414-1.59 0-3.188-.253-4.733-.768l-25.326-8.44-25.325 8.44c-5.709 1.904-12.123.23-16.193-4.552-2.367-2.781-3.542-6.388-3.542-10.042v-88.576h-59.315c-8.284 0-15 6.728-15 15.026v162.184h241v-162.31c0-8.311-6.734-15.043-15.031-15.026z"/></g></g><g><path d="m256.008 55.171c1.599 0 3.198.256 4.734.768l10.326 3.441v-59.38h-30.121v59.38l10.325-3.441c1.538-.511 3.137-.768 4.736-.768z"/><path d="m369.008 0h-67.94v80.215c0 4.829-2.316 9.363-6.225 12.187-2.588 1.869-5.665 2.839-8.775 2.839-1.59 0-3.188-.253-4.733-.768l-25.326-8.44-25.325 8.44c-4.573 1.525-9.599.754-13.509-2.07-3.909-2.824-6.226-7.359-6.226-12.187v-80.216h-67.94c-8.284 0-15 6.727-15 15.026v193.398c0 .458.028.91.068 1.357h255.863c.04-.448.068-.899.068-1.357v-193.398c0-8.299-6.715-15.026-15-15.026z"/></g></g></g></svg>