<svg id="Capa_1" enable-background="new 0 0 512 512" height="512" viewBox="0 0 512 512" width="512" xmlns="http://www.w3.org/2000/svg"><g><g><path d="m231.156 174.008 94.493-35.926-19.05-50.106-23.522 8.669c-7.946 2.944-16.773-1.111-19.717-9.057-2.929-7.91 1.076-16.694 8.951-19.677.035-.013.071-.027.108-.04l23.276-8.578-12.109-31.85c-3.011-7.921-11.873-11.9-19.794-8.889l-80.152 30.474z"/><path d="m296.56 346.034 140.81-53.536-16.283-42.827-67.048 24.963c-7.946 2.944-16.773-1.112-19.717-9.057-2.93-7.909 1.076-16.694 8.95-19.677.035-.013.071-.027.108-.04l66.802-24.872-21.858-57.491c-3.011-7.921-11.873-11.9-19.794-8.889l-126.469 48.083z"/></g><path d="m460.544 316.515-181.761 69.106-145.068-381.556c-.554-1.458-1.567-2.737-2.957-3.444-1.307-.665-2.806-.84-4.21-.306l-97.349 37.011c-15.795 6.006-23.732 23.679-17.726 39.475 6.005 15.796 23.679 23.732 39.474 17.727l44.159-16.789 131.137 345.181c-.003.001-.007.003-.011.004-11.492 4.369-20.595 12.952-25.631 24.168-5.037 11.215-5.404 23.721-1.035 35.213 4.37 11.492 12.952 20.595 24.168 25.632 11.199 5.029 23.683 5.404 35.162 1.055.017-.006.036-.013.052-.02 23.723-9.02 35.685-35.658 26.666-59.382l197.042-74.915c15.912-6.05 23.907-23.853 17.857-39.765-6.05-15.913-23.854-23.908-39.969-18.395zm-212.502 163.773c-7.921 3.011-16.783-.968-19.794-8.889-3.012-7.921.968-16.783 8.889-19.794s16.783.968 19.794 8.889-.969 16.783-8.889 19.794z"/></g></svg>