<?xml version="1.0" encoding="iso-8859-1"?>
<!-- Generator: Adobe Illustrator 19.0.0, SVG Export Plug-In . SVG Version: 6.00 Build 0)  -->
<svg xmlns="http://www.w3.org/2000/svg" xmlns:xlink="http://www.w3.org/1999/xlink" version="1.1" id="Layer_1" x="0px" y="0px" viewBox="0 0 512.001 512.001" style="enable-background:new 0 0 512.001 512.001;" xml:space="preserve">
<g>
	<g>
		<path d="M203.285,353.559c-5.815-5.815-15.336-5.872-21.223,0.015l-42.448,42.448c-5.823,5.821-5.907,15.285,0,21.224    c5.687,5.672,15.566,5.672,21.209,0l42.477-42.448C209.149,368.949,209.149,359.407,203.285,353.559z"/>
	</g>
</g>
<g>
	<g>
		<path d="M160.838,311.112c-5.672-5.658-15.522-5.658-21.224,0L97.166,353.56c-5.849,5.849-5.849,15.375,0,21.239    c5.834,5.834,15.39,5.849,21.224-0.015l42.448-42.448C166.661,326.513,166.745,317.05,160.838,311.112z"/>
	</g>
</g>
<g>
	<g>
		<path d="M224.525,417.245c-5.701-5.672-15.596-5.672-21.209,0l-21.253,21.224c-5.835,5.849-5.835,15.375-0.001,21.224    c5.878,5.878,15.39,5.849,21.239,0l21.224-21.224C230.374,432.621,230.374,423.094,224.525,417.245z"/>
	</g>
</g>
<g>
	<g>
		<path d="M118.39,268.664c-5.896-5.867-15.327-5.867-21.224,0l-42.463,42.448c-5.849,5.849-5.849,15.375,0,21.224    c5.863,5.863,15.375,5.893,21.239,0l42.448-42.448C124.257,283.992,124.257,274.559,118.39,268.664z"/>
	</g>
</g>
<g>
	<g>
		<path d="M465.509,318.616L277.585,130.693l-74.283,74.283c-17.56,17.56-46.127,17.56-63.686,0    c-17.559-17.56-17.56-46.112,0-63.672l94.134-94.134C213.952,38.185,180.48,24.28,180.48,24.28    c-16.782-6.728-35.867-2.858-48.692,9.923L13.077,152.914c-13.969,13.954-17.178,35.852-7.534,53.69l40.989,70.226l29.41-29.39    c17.56-17.56,46.112-17.56,63.672,0c8.333,8.333,12.41,19.174,12.835,30.106c10.907,0.516,21.682,4.396,29.628,12.342    c7.987,8.001,12.457,18.527,12.974,29.752c10.711,0.569,21.305,4.531,29.474,12.681c14.722,14.745,16.338,36.888,6.363,54.115    c5.485,2.125,10.577,5.306,14.861,9.586c17.56,17.56,17.56,46.112,0,63.672l-10.597,10.598l7.49,7.52    c17.56,17.56,46.112,17.56,63.672,0c5.672-5.672,9.513-12.488,11.521-19.714c14.57,3.195,30.297-0.865,41.568-12.121    c5.657-5.672,9.498-12.503,11.506-19.729c14.408,3.21,30.283-0.851,41.539-12.107c5.672-5.672,9.513-12.488,11.521-19.7    c14.628,3.181,30.722-1.319,41.539-12.136C483.064,364.746,483.137,336.243,465.509,318.616z"/>
	</g>
</g>
<g>
	<g>
		<path d="M498.81,133.145l-96.66-96.66c-10.206-10.205-24.616-15.009-39.325-12.608c-68.686,14.225-53.775,12.734-81.827,18.505    l-120.102,120.09c-0.117,0.117-0.152,0.273-0.264,0.392c-5.046,5.355-5.783,13.635-0.344,19.994    c6.213,7.173,16.182,6.502,21.79,0.895l95.507-95.507l165.579,165.579c1.422,1.411,2.312,2.293,2.312,2.293l55.135-61.437    C516.52,176.971,515.62,149.955,498.81,133.145z"/>
	</g>
</g>
<g>
</g>
<g>
</g>
<g>
</g>
<g>
</g>
<g>
</g>
<g>
</g>
<g>
</g>
<g>
</g>
<g>
</g>
<g>
</g>
<g>
</g>
<g>
</g>
<g>
</g>
<g>
</g>
<g>
</g>
</svg>
