<svg id="Layer_1" enable-background="new 0 0 512.015 512.015" height="512" viewBox="0 0 512.015 512.015" width="512" xmlns="http://www.w3.org/2000/svg">
<style type="text/css">
	.st0{fill:#FFFFFF;}
</style>
<g><path  class="st0"  d="m198.562 0h66.4v80.333h-66.4z"/><path d="m344.229 162.8c41.599 0 80.103 13.477 111.4 36.279v-184.079c0-8.284-6.716-15-15-15h-145.666v95.333c0 8.284-6.716 15-15 15h-96.4c-8.284 0-15-6.716-15-15v-95.333h-145.667c-8.284 0-15 6.716-15 15v417.733c0 8.284 6.716 15 15 15h157.501c-73.932-123.458 19.116-286.358 163.832-284.933z"/><path d="m495.817 302.361-140.98 140.979c-5.858 5.859-15.357 5.857-21.213 0l-80.333-80.333c-5.859-5.859-5.852-15.361 0-21.213l45.444-45.444c5.858-5.859 15.361-5.853 21.213 0l24.282 24.284 95.85-95.851c-103.098-78.701-256.216-3.381-255.45 127.619-.001 88.143 71.454 159.598 159.599 159.598 107.198 1.479 186.383-108.623 151.588-209.639z"/><path d="m354.835 352.453c-5.858 5.858-15.355 5.858-21.213 0l-24.283-24.284-24.23 24.23 59.12 59.12 132.382-132.382c3.905-3.905 3.905-10.237 0-14.142l-10.089-10.088c-3.905-3.905-10.237-3.905-14.142 0z"/></g></svg>