<?xml version="1.0" encoding="iso-8859-1"?>
<!-- Generator: Adobe Illustrator 19.0.0, SVG Export Plug-In . SVG Version: 6.00 Build 0)  -->
<svg xmlns="http://www.w3.org/2000/svg" xmlns:xlink="http://www.w3.org/1999/xlink" version="1.1" id="Layer_1" x="0px" y="0px" viewBox="0 0 512 512" style="enable-background:new 0 0 512 512;" xml:space="preserve">
<g>
	<g>
		<path d="M256,91c-90.981,0-165,74.019-165,165s74.019,165,165,165s165-74.019,165-165S346.981,91,256,91z M286,241    c24.814,0,45,20.186,45,45v30c0,24.814-20.186,45-45,45h-15v15c0,8.291-6.709,15-15,15c-8.291,0-15-6.709-15-15v-15h-15    c-24.814,0-45-20.186-45-45c0-8.291,6.709-15,15-15s15,6.709,15,15c0,8.276,6.724,15,15,15h15v-60h-15c-24.814,0-45-20.186-45-45    v-30c0-24.814,20.186-45,45-45h15v-15c0-8.291,6.709-15,15-15s15,6.709,15,15v15h15c24.814,0,45,20.186,45,45    c0,8.291-6.709,15-15,15c-8.291,0-15-6.709-15-15c0-8.276-6.724-15-15-15h-15v60H286z"/>
	</g>
</g>
<g>
	<g>
		<path d="M226,181c-8.276,0-15,6.724-15,15v30c0,8.276,6.724,15,15,15h15v-60H226z"/>
	</g>
</g>
<g>
	<g>
		<path d="M286,271h-15v60h15c8.276,0,15-6.724,15-15v-30C301,277.724,294.276,271,286,271z"/>
	</g>
</g>
<g>
	<g>
		<path d="M256,0C115.39,0,0,115.39,0,256s115.39,256,256,256s256-115.39,256-256S396.61,0,256,0z M256,451    c-107.52,0-195-87.48-195-195S148.48,61,256,61s195,87.48,195,195S363.52,451,256,451z"/>
	</g>
</g>
<g>
</g>
<g>
</g>
<g>
</g>
<g>
</g>
<g>
</g>
<g>
</g>
<g>
</g>
<g>
</g>
<g>
</g>
<g>
</g>
<g>
</g>
<g>
</g>
<g>
</g>
<g>
</g>
<g>
</g>
</svg>
