<svg id="Layer_3" height="512" viewBox="0 0 64 64" width="512" xmlns="http://www.w3.org/2000/svg" data-name="Layer 3">
<style type="text/css">
	.st0{fill:#FFFFFF;}
</style>
<path class="st0"  d="m28 23a8 8 0 1 0 -8-8 8.009 8.009 0 0 0 8 8zm-4-10a3 3 0 0 1 3-3v-1h2v1a3 3 0 0 1 3 3h-2a1 1 0 0 0 -1-1v2a3 3 0 0 1 0 6v1h-2v-1a3 3 0 0 1 -3-3h2a1 1 0 0 0 1 1v-2a3 3 0 0 1 -3-3z"/><path d="m30 17a1 1 0 0 0 -1-1v2a1 1 0 0 0 1-1z"/><path d="m46 49a1 1 0 0 1 -1 1h-13.586l-3.707 3.707a1 1 0 0 1 -.313.212l-7 3a.989.989 0 0 1 -.394.081 1 1 0 0 1 -.919-1.394l2.403-5.606h-10.484a1 1 0 0 1 -1-1v-20a1 1 0 0 1 1-1h31.586l5.414-5.414v-19.586h-40v58h40v-27.586l-2 2zm-18-44a10 10 0 1 1 -10 10 10.011 10.011 0 0 1 10-10z"/><path d="m27 12a1 1 0 0 0 0 2z"/><path d="m43 30.414-19.157 19.157-1.939 4.525 4.525-1.939 19.157-19.157z"/><path d="m54.171 20a1.816 1.816 0 0 0 -1.293.536l-4.464 4.464 2.586 2.586 4.464-4.464a1.829 1.829 0 0 0 -1.293-3.122z"/><path d="m45.171 27.171h3.657v3.657h-3.657z" transform="matrix(.707 -.707 .707 .707 -6.74 41.728)"/><path d="m38.586 32 2-2h-28.586v18h10.586l2-2h-10.586v-2h12.586l2-2h-14.586v-2h16.586l2-2h-18.586v-2h20.586l2-2h-22.586v-2z"/><path d="m35.414 46-2 2h10.586v-10.586l-6.586 6.586h4.586v2z"/></svg>