<svg id="Capa_1" enable-background="new 0 0 512 512" height="512" viewBox="0 0 512 512" width="512" xmlns="http://www.w3.org/2000/svg"><g><g><path d="m269.947 104.596h90.279l-105.279-104.596v89.595c0 8.285 6.716 15.001 15 15.001z"/><path d="m269.947 134.596c-24.813 0-45-20.187-45-45v-89.596h-209.947c-8.284 0-15 6.716-15 15v481.576c0 8.284 6.716 15 15 15h330.226c8.284 0 15-6.716 15-15v-361.98zm1.19 316.847h-45.148c-8.284 0-15-6.716-15-15s6.716-15 15-15h45.148c8.284 0 15 6.716 15 15 0 8.285-6.716 15-15 15zm0-60.162h-195.148c-8.284 0-15-6.716-15-15s6.716-15 15-15h195.148c8.284 0 15 6.716 15 15s-6.716 15-15 15zm0-60.161h-195.148c-8.284 0-15-6.716-15-15s6.716-15 15-15h195.148c8.284 0 15 6.716 15 15s-6.716 15-15 15zm0-60.162h-195.148c-8.284 0-15-6.716-15-15s6.716-15 15-15h195.148c8.284 0 15 6.716 15 15s-6.716 15-15 15zm0-60.161h-195.148c-8.284 0-15-6.716-15-15s6.716-15 15-15h195.148c8.284 0 15 6.716 15 15s-6.716 15-15 15z"/></g><g><path d="m431.233 428.264c-2.583 11.053-.992 22.867 4.82 32.962l27.351 47.503c2.511 4.361 8.734 4.361 11.245 0l27.351-47.503c5.812-10.095 7.404-21.91 4.82-32.962z"/><path d="m487.935 29.177c-3.999-38.903-33.817-38.903-37.817 0l-22.299 216.92c-.032.31-.063.619-.094.929-4.49 44.652.139 89.754 13 132.739l5.535 18.499h45.534l5.535-18.499c12.861-42.985 17.49-88.087 13-132.739-.031-.31-.063-.619-.095-.929z"/></g></g></svg>