<?xml version="1.0" encoding="iso-8859-1"?>
<!-- Generator: Adobe Illustrator 19.0.0, SVG Export Plug-In . SVG Version: 6.00 Build 0)  -->
<svg xmlns="http://www.w3.org/2000/svg" xmlns:xlink="http://www.w3.org/1999/xlink" version="1.1" id="Layer_1" x="0px" y="0px" viewBox="0 0 512 512" style="enable-background:new 0 0 512 512;" xml:space="preserve">
<g>
	<g>
		<path d="M436,271H241V76c0-8.291-6.709-15-15-15C101.928,61,0,161.928,0,286s101.928,226,226,226s225-101.928,225-226    C451,277.709,444.291,271,436,271z"/>
	</g>
</g>
<g>
	<g>
		<path d="M286,0c-8.291,0-15,6.709-15,15v211c0,8.291,6.709,15,15,15h211c8.291,0,15-6.709,15-15C512,101.928,410.072,0,286,0z"/>
	</g>
</g>
<g>
</g>
<g>
</g>
<g>
</g>
<g>
</g>
<g>
</g>
<g>
</g>
<g>
</g>
<g>
</g>
<g>
</g>
<g>
</g>
<g>
</g>
<g>
</g>
<g>
</g>
<g>
</g>
<g>
</g>
</svg>
